<svg xmlns="http://www.w3.org/2000/svg" width="18" height="18" fill="none"><path fill="#171717" d="M9 5.625a3.375 3.375 0 1 0 0 6.75 3.375 3.375 0 0 0 0-6.75Zm0 5.625a2.25 2.25 0 1 1 0-4.5 2.25 2.25 0 0 1 0 4.5Zm3.375-9.563h-6.75a3.942 3.942 0 0 0-3.938 3.938v6.75a3.942 3.942 0 0 0 3.938 3.938h6.75a3.942 3.942 0 0 0 3.938-3.938v-6.75a3.942 3.942 0 0 0-3.938-3.938Zm2.813 10.688a2.812 2.812 0 0 1-2.813 2.813h-6.75a2.812 2.812 0 0 1-2.813-2.813v-6.75a2.813 2.813 0 0 1 2.813-2.813h6.75a2.812 2.812 0 0 1 2.813 2.813v6.75ZM13.5 5.344a.844.844 0 1 1-1.688 0 .844.844 0 0 1 1.688 0Z"/></svg>